<!-- public/assets/brand/toothy-knight-mark-mono-dark.svg -->
<svg width="256" height="256" viewBox="0 0 256 256" xmlns="http://www.w3.org/2000/svg" role="img" aria-label="Toothy Knight Mono Dark">
  <rect x="16" y="16" width="224" height="224" rx="36" fill="#FFFFFF"/>
  <g fill="#0F172A" stroke="#0F172A" stroke-width="0">
    <!-- stylized tooth -->
    <path d="M58 74c0-20 16-34 44-34 13 0 24 4 28 6 4-2 15-6 28-6 28 0 44 14 44 34 0 16-6 38-9 54-3 12-11 22-23 25-10 3-21 0-29-7-2-2-5-2-7 0-8 7-19 10-29 7-12-3-20-13-23-25-3-16-9-38-9-54z" />
    <!-- cape -->
    <path d="M34 150c34-30 70-38 110-18 22 11 44 8 78-10v46c-24 14-45 20-66 10-28-13-69-11-95 12-9 8-19 1-27-6v-34z" opacity=".9"/>
    <!-- sword -->
    <rect x="200" y="96" width="8" height="60" rx="3"/>
    <rect x="192" y="152" width="24" height="8" rx="4"/>
    <!-- eyes + smile -->
    <circle cx="102" cy="98" r="7" fill="#0F172A"/>
    <circle cx="154" cy="98" r="7" fill="#0F172A"/>
    <path d="M118 122c0 10 20 10 20 0" stroke="#0F172A" stroke-width="6" stroke-linecap="round"/>
  </g>
</svg>
